<?xml version="1.0" standalone="no"?>
<!DOCTYPE svg PUBLIC "-//W3C//DTD SVG 20010904//EN"
 "http://www.w3.org/TR/2001/REC-SVG-20010904/DTD/svg10.dtd">
<svg version="1.0" xmlns="http://www.w3.org/2000/svg"
 width="540.000000pt" height="540.000000pt" viewBox="0 0 540.000000 540.000000"
 preserveAspectRatio="xMidYMid meet">
<metadata>
Created by potrace 1.11, written by Peter Selinger 2001-2013
</metadata>
<g transform="translate(0.000000,540.000000) scale(0.100000,-0.100000)"
fill="#000000" stroke="none">
<path d="M3342 4913 c-125 -159 -285 -458 -350 -653 -45 -139 -82 -304 -82
-373 0 -44 1 -45 108 -138 241 -209 702 -689 870 -906 l32 -41 103 -7 c248
-17 494 51 719 198 107 69 212 157 201 167 -23 23 -511 151 -723 190 -63 12
-122 23 -131 26 -13 4 -3 18 41 63 93 92 177 234 253 426 42 106 117 357 117
393 l0 25 -147 -6 c-243 -10 -470 -67 -652 -163 -46 -24 -84 -44 -86 -44 -1 0
-5 53 -8 118 -10 193 -45 341 -130 549 -47 114 -94 213 -101 213 -3 0 -18 -17
-34 -37z"/>
<path d="M1866 4049 c-185 -19 -363 -90 -498 -197 -415 -330 -776 -1169 -885
-2054 -21 -175 -24 -553 -4 -673 58 -361 170 -508 454 -594 173 -52 443 -75
711 -60 899 51 1792 433 2202 943 77 96 156 250 185 361 31 118 31 318 0 437
-74 288 -242 545 -618 944 -332 352 -680 626 -985 777 -232 114 -349 138 -562
116z m372 -533 c-4 -84 -18 -108 -74 -126 -79 -26 -152 57 -120 134 21 51 50
66 129 66 l69 0 -4 -74z m-668 -643 c0 -101 -39 -163 -101 -163 -90 0 -141 97
-88 164 29 36 52 45 127 45 l62 1 0 -47z m1350 0 c0 -101 -39 -163 -101 -163
-90 0 -141 97 -88 164 29 36 52 45 127 45 l62 1 0 -47z m-682 -707 c-4 -84
-18 -108 -74 -126 -79 -26 -152 57 -120 134 21 51 50 66 129 66 l69 0 -4 -74z
m1350 0 c-4 -84 -18 -108 -74 -126 -79 -26 -152 57 -120 134 21 51 50 66 129
66 l69 0 -4 -74z m-2248 -205 c0 -76 -16 -118 -51 -136 -85 -45 -174 26 -148
119 14 52 57 76 137 76 l62 0 0 -59z m1580 -438 c0 -101 -39 -163 -101 -163
-90 0 -141 97 -88 164 29 36 52 45 127 45 l62 1 0 -47z m-901 -235 c0 -81 -18
-120 -61 -141 -93 -45 -181 50 -133 143 21 42 41 49 123 50 l72 0 -1 -52z
m-899 -215 c0 -101 -39 -163 -101 -163 -90 0 -141 97 -88 164 29 36 52 45 127
45 l62 1 0 -47z"/>
</g>
</svg>
